<svg xmlns="http://www.w3.org/2000/svg" xmlns:xlink="http://www.w3.org/1999/xlink" width="22" height="22" viewBox="0 0 22 22">
    <defs>
        <path id="a" d="M10.78 0c5.95 0 10.78 4.83 10.78 10.78 0 5.95-4.83 10.78-10.78 10.78C4.83 21.56 0 16.73 0 10.78 0 4.83 4.83 0 10.78 0zm5.507 7.29a.99.99 0 0 0-1.4 0l-6.155 6.155-2.042-2.042a.99.99 0 1 0-1.4 1.4l2.742 2.742a.989.989 0 0 0 1.4 0l6.855-6.855a.99.99 0 0 0 0-1.4z"/>
    </defs>
    <use fill="#388200" fill-rule="nonzero" xlink:href="#a"/>
</svg>
