<svg xmlns="http://www.w3.org/2000/svg" xmlns:xlink="http://www.w3.org/1999/xlink" width="20" height="15" viewBox="0 0 20 15">
    <defs>
        <path id="a" d="M0 0h1084v535H0z"/>
    </defs>
    <g fill="none" fill-rule="evenodd">
        <path fill="#FFF" d="M-759-211H680v1585H-759z"/>
        <g transform="translate(-553 -16)">
            <mask id="b" fill="#fff">
                <use xlink:href="#a"/>
            </mask>
            <g mask="url(#b)">
                <path fill="#FAFAFA" stroke="#EBEBEB" d="M542.5.5h250v49h-250z"/>
                <g fill-rule="nonzero">
                    <path fill="#002781" d="M572.167 16h-18.334a.834.834 0 0 0-.833.833v13.334c0 .46.373.833.833.833h18.334c.46 0 .833-.373.833-.833V16.833a.834.834 0 0 0-.833-.833z"/>
                    <path fill="#E6E6E6" d="M573 16.833a.834.834 0 0 0-.833-.833h-2.15l-5.35 4.115V16h-3.334v4.115L555.983 16h-2.15a.834.834 0 0 0-.833.833v1.078l5.1 3.922H553v3.334h5.1L553 29.09v1.077c0 .46.373.833.833.833h2.15l5.35-4.115V31h3.334v-4.115l5.35 4.115h2.15c.46 0 .833-.373.833-.833V29.09l-5.1-3.923h5.1v-3.334h-5.1l5.1-3.922v-1.078z"/>
                    <path fill="#D10D24" d="M573 22.667h-9.167V16h-1.666v6.667H553v1.666h9.167V31h1.666v-6.667H573z"/>
                    <path fill="#D10D24" d="M572.584 16.128l-7.417 5.705h1.366L573 16.86v-.026a.822.822 0 0 0-.416-.705zM566.533 25.167h-1.366l7.417 5.705a.822.822 0 0 0 .416-.705v-.026l-6.467-4.974zM559.467 25.167L553 30.14v.026c0 .305.172.56.416.705l7.417-5.705h-1.366zM559.467 21.833h1.366l-7.417-5.705a.822.822 0 0 0-.416.705v.026l6.467 4.974z"/>
                </g>
            </g>
        </g>
    </g>
</svg>
